<svg version="1.1" viewBox="0 0 24 24" xmlns="http://www.w3.org/2000/svg"><path d="m12.51 3.295a.8.8 0 00-.832.7656.8.8 0 00.7637.832c3.016.1298 5.733 2.183 6.559 5.264 1.018 3.801-1.226 7.689-5.027 8.707-3.801 1.018-7.687-1.226-8.705-5.027-.7339-2.739.2345-5.518 2.248-7.24v3.271a.8.8 0 00.7988.8008.8.8 0 00.8008-.8008v-5.035a.8001.8001 0 00-.8008-.8008h-5.213a.8.8 0 00-.7988.8008.8.8 0 00.7988.7988h3.096c-2.276 2.127-3.335 5.407-2.475 8.619 1.242 4.636 6.03 7.4 10.67 6.158 4.636-1.242 7.399-6.03 6.156-10.67-1.007-3.757-4.334-6.288-8.035-6.447z" color="#000000" stroke-linecap="round" stroke-linejoin="round" style="-inkscape-stroke:none"/></svg>
